<svg xmlns="http://www.w3.org/2000/svg" viewBox="0 0 800 200" fill="none">
  <defs>
    <linearGradient id="bg" x1="0%" y1="0%" x2="100%" y2="100%">
      <stop offset="0%" style="stop-color:#1a1a2e"/>
      <stop offset="100%" style="stop-color:#16213e"/>
    </linearGradient>
    <linearGradient id="red" x1="0%" y1="0%" x2="100%" y2="100%">
      <stop offset="0%" style="stop-color:#ff0000"/>
      <stop offset="100%" style="stop-color:#cc0000"/>
    </linearGradient>
    <linearGradient id="blurple" x1="0%" y1="0%" x2="100%" y2="100%">
      <stop offset="0%" style="stop-color:#5865f2"/>
      <stop offset="100%" style="stop-color:#4752c4"/>
    </linearGradient>
    <filter id="shadow" x="-10%" y="-10%" width="130%" height="130%">
      <feDropShadow dx="0" dy="4" stdDeviation="8" flood-color="#000" flood-opacity="0.3"/>
    </filter>
  </defs>

  <!-- Background -->
  <rect width="800" height="200" rx="16" fill="url(#bg)"/>

  <!-- YouTube Icon -->
  <g transform="translate(60, 50)" filter="url(#shadow)">
    <rect width="100" height="100" rx="22" fill="url(#red)"/>
    <polygon points="40,25 40,75 75,50" fill="white"/>
  </g>

  <!-- Arrow / Connection -->
  <g transform="translate(185, 90)">
    <line x1="0" y1="10" x2="50" y2="10" stroke="#5865f2" stroke-width="3" stroke-dasharray="6,4"/>
    <polygon points="48,2 60,10 48,18" fill="#5865f2"/>
  </g>

  <!-- Discord Icon -->
  <g transform="translate(260, 50)" filter="url(#shadow)">
    <rect width="100" height="100" rx="22" fill="url(#blurple)"/>
    <!-- Discord Clyde logo -->
    <path d="M67.5 36.5c-4.2-2.8-8.7-4.9-13.5-6.1l-.6 1.3c5 1.2 9.7 3.2 14 6.1-5.9-3-12.6-4.7-19.4-4.7s-13.5 1.7-19.4 4.7c4.3-2.9 9-4.9 14-6.1l-.6-1.3c-4.8 1.2-9.3 3.3-13.5 6.1C22.4 44.2 20 52.3 20 60.5c5.8 4.3 11.4 6.8 16.9 8.5l1.4-2.3c-3-.9-5.8-2.1-8.5-3.5 1-.7 2-1.5 2.9-2.3 7.8 3.7 16.4 3.7 24.2 0 .9.8 1.9 1.6 2.9 2.3-2.7 1.4-5.5 2.6-8.5 3.5l1.4 2.3c5.5-1.7 11.1-4.2 16.9-8.5.1-8.2-2.3-16.3-6.5-24zM40 55.5c-3 0-5.5-2.7-5.5-6s2.5-6 5.5-6 5.5 2.7 5.5 6-2.5 6-5.5 6zm20 0c-3 0-5.5-2.7-5.5-6s2.5-6 5.5-6 5.5 2.7 5.5 6-2.5 6-5.5 6z" fill="white"/>
  </g>

  <!-- RPC Badge -->
  <g transform="translate(390, 72)">
    <rect width="80" height="56" rx="28" fill="#43b581" opacity="0.9"/>
    <text x="40" y="36" font-family="Arial, sans-serif" font-size="20" font-weight="bold" fill="white" text-anchor="middle">RPC</text>
  </g>

  <!-- Title Text -->
  <text x="510" y="95" font-family="Arial, sans-serif" font-size="42" font-weight="bold" fill="white">YouTube</text>
  <text x="510" y="140" font-family="Arial, sans-serif" font-size="32" font-weight="600" fill="#5865f2">Discord RPC</text>

  <!-- Tagline -->
  <text x="510" y="170" font-family="Arial, sans-serif" font-size="14" fill="#aaa">Show what you watch. Flex on Discord.</text>
</svg>
